<svg xmlns="http://www.w3.org/2000/svg" version="1.1" xmlns:xlink="http://www.w3.org/1999/xlink" xmlns:svgjs="http://svgjs.dev/svgjs" viewBox="0 0 7.234380890455491 3.573366142392802"><g transform="matrix(1,0,0,1,0.41841517667305794,2.0989509657197436)"><rect width="7.234380890455491" height="7.234380890455491" x="-0.41841517667305794" y="-3.929458339751088" fill="#ffffff"></rect><g><path d=" M 0.23925000000000002 1.0177500000000002 Q 0.15 0.9795 0.09825 0.9127500000000001 Q 0.0465 0.8460000000000001 0.0405 0.762 L 0.3255 0.762 Q 0.3315 0.8025000000000001 0.363 0.8250000000000001 Q 0.3945 0.8475000000000001 0.441 0.8475000000000001 Q 0.47700000000000004 0.8475000000000001 0.498 0.8325000000000001 Q 0.519 0.8175000000000001 0.519 0.7935000000000001 Q 0.519 0.762 0.4845 0.7470000000000001 Q 0.45 0.7320000000000001 0.3705 0.7140000000000001 Q 0.2805 0.6960000000000001 0.2205 0.6735000000000001 Q 0.1605 0.651 0.11625 0.6000000000000001 Q 0.07200000000000001 0.5490000000000002 0.07200000000000001 0.4620000000000001 Q 0.07200000000000001 0.3870000000000001 0.1125 0.32625000000000004 Q 0.153 0.26550000000000007 0.23175 0.22950000000000004 Q 0.3105 0.19350000000000012 0.4215 0.19350000000000012 Q 0.5865 0.19350000000000012 0.681 0.2745000000000001 Q 0.7755 0.35550000000000004 0.7905 0.48750000000000004 L 0.525 0.48750000000000004 Q 0.5175 0.44700000000000006 0.48975 0.42525000000000013 Q 0.462 0.4035000000000001 0.41550000000000004 0.4035000000000001 Q 0.3795 0.4035000000000001 0.36075 0.41700000000000004 Q 0.342 0.4305000000000001 0.342 0.4545000000000001 Q 0.342 0.48450000000000004 0.3765 0.5002500000000001 Q 0.41100000000000003 0.5160000000000001 0.4875 0.5325000000000001 Q 0.579 0.552 0.63975 0.5760000000000001 Q 0.7005 0.6000000000000001 0.74625 0.6532500000000001 Q 0.792 0.7065000000000001 0.792 0.798 Q 0.792 0.8715 0.74925 0.93 Q 0.7065 0.9885 0.62775 1.02225 Q 0.549 1.056 0.4425 1.056 Q 0.3285 1.056 0.23925000000000002 1.0177500000000002 M 1.43098974609375 0.7950000000000002 L 1.43098974609375 1.0455 L 1.30348974609375 1.0455 Q 0.98098974609375 1.0455 0.98098974609375 0.7260000000000001 L 0.98098974609375 0.4485000000000001 L 0.87748974609375 0.4485000000000001 L 0.87748974609375 0.20400000000000007 L 0.98098974609375 0.20400000000000007 L 0.98098974609375 0 L 1.2764897460937499 0 L 1.2764897460937499 0.20400000000000007 L 1.42948974609375 0.20400000000000007 L 1.42948974609375 0.4485000000000001 L 1.2764897460937499 0.4485000000000001 L 1.2764897460937499 0.7305000000000001 Q 1.2764897460937499 0.7650000000000001 1.29223974609375 0.78 Q 1.30798974609375 0.7950000000000002 1.34548974609375 0.7950000000000002 L 1.43098974609375 0.7950000000000002 M 1.9785205078124999 0.23850000000000005 Q 2.0490205078125 0.19650000000000012 2.1300205078124996 0.19650000000000012 L 2.1300205078124996 0.5100000000000001 L 2.0475205078125 0.5100000000000001 Q 1.9515205078125 0.5100000000000001 1.9050205078125 0.5475000000000001 Q 1.8585205078125 0.5850000000000001 1.8585205078125 0.6780000000000002 L 1.8585205078125 1.0455 L 1.5645205078125 1.0455 L 1.5645205078125 0.20400000000000007 L 1.8585205078125 0.20400000000000007 L 1.8585205078125 0.35250000000000004 Q 1.9080205078124999 0.2805000000000001 1.9785205078124999 0.23850000000000005 M 2.232802734375 0.39600000000000013 Q 2.280052734375 0.2985000000000001 2.361802734375 0.2460000000000001 Q 2.443552734375 0.19350000000000012 2.5440527343749997 0.19350000000000012 Q 2.631052734375 0.19350000000000012 2.694052734375 0.2280000000000001 Q 2.7570527343749998 0.26250000000000007 2.7915527343749997 0.32100000000000006 L 2.7915527343749997 0.20400000000000007 L 3.0855527343749998 0.20400000000000007 L 3.0855527343749998 1.0455 L 2.7915527343749997 1.0455 L 2.7915527343749997 0.9285000000000001 Q 2.7570527343749998 0.9870000000000001 2.693302734375 1.0215 Q 2.629552734375 1.056 2.5440527343749997 1.056 Q 2.443552734375 1.056 2.361802734375 1.0035 Q 2.280052734375 0.9510000000000001 2.232802734375 0.8527500000000001 Q 2.185552734375 0.7545000000000002 2.185552734375 0.6240000000000001 Q 2.185552734375 0.49350000000000005 2.232802734375 0.39600000000000013 M 2.747302734375 0.49650000000000005 Q 2.703052734375 0.45000000000000007 2.6385527343749997 0.45000000000000007 Q 2.572552734375 0.45000000000000007 2.529052734375 0.49575000000000014 Q 2.4855527343749997 0.5415000000000001 2.4855527343749997 0.6240000000000001 Q 2.4855527343749997 0.7050000000000001 2.529052734375 0.7522500000000001 Q 2.572552734375 0.7995000000000001 2.6385527343749997 0.7995000000000001 Q 2.703052734375 0.7995000000000001 2.747302734375 0.7530000000000001 Q 2.7915527343749997 0.7065000000000001 2.7915527343749997 0.6240000000000001 Q 2.7915527343749997 0.543 2.747302734375 0.49650000000000005 M 3.7485417480468746 0.7950000000000002 L 3.7485417480468746 1.0455 L 3.6210417480468746 1.0455 Q 3.298541748046875 1.0455 3.298541748046875 0.7260000000000001 L 3.298541748046875 0.4485000000000001 L 3.195041748046875 0.4485000000000001 L 3.195041748046875 0.20400000000000007 L 3.298541748046875 0.20400000000000007 L 3.298541748046875 0 L 3.594041748046875 0 L 3.594041748046875 0.20400000000000007 L 3.7470417480468745 0.20400000000000007 L 3.7470417480468745 0.4485000000000001 L 3.594041748046875 0.4485000000000001 L 3.594041748046875 0.7305000000000001 Q 3.594041748046875 0.7650000000000001 3.6097917480468746 0.78 Q 3.625541748046875 0.7950000000000002 3.663041748046875 0.7950000000000002 L 3.7485417480468746 0.7950000000000002 M 4.663572509765625 0.2932500000000001 Q 4.749072509765625 0.3900000000000001 4.749072509765625 0.5550000000000002 L 4.749072509765625 1.0455 L 4.455072509765625 1.0455 L 4.455072509765625 0.5940000000000001 Q 4.455072509765625 0.5220000000000001 4.417572509765625 0.4807500000000001 Q 4.380072509765625 0.4395000000000001 4.317072509765625 0.4395000000000001 Q 4.251072509765625 0.4395000000000001 4.2135725097656245 0.4807500000000001 Q 4.176072509765625 0.5220000000000001 4.176072509765625 0.5940000000000001 L 4.176072509765625 1.0455 L 3.882072509765625 1.0455 L 3.882072509765625 0.20400000000000007 L 4.176072509765625 0.20400000000000007 L 4.176072509765625 0.32400000000000007 Q 4.2150725097656245 0.2670000000000001 4.281072509765624 0.23175000000000012 Q 4.347072509765625 0.19650000000000012 4.432572509765625 0.19650000000000012 Q 4.578072509765625 0.19650000000000012 4.663572509765625 0.2932500000000001 M 5.43453369140625 1.0455 L 5.283033691406249 0.8340000000000001 L 5.16303369140625 1.0455 L 4.840533691406249 1.0455 L 5.121033691406249 0.6090000000000001 L 4.82853369140625 0.20400000000000007 L 5.15853369140625 0.20400000000000007 L 5.310033691406249 0.4155000000000001 L 5.4315336914062495 0.20400000000000007 L 5.754033691406249 0.20400000000000007 L 5.46753369140625 0.633 L 5.76453369140625 1.0455 L 5.43453369140625 1.0455 M 6.346519775390624 0.7950000000000002 L 6.346519775390624 1.0455 L 6.219019775390625 1.0455 Q 5.896519775390624 1.0455 5.896519775390624 0.7260000000000001 L 5.896519775390624 0.4485000000000001 L 5.793019775390625 0.4485000000000001 L 5.793019775390625 0.20400000000000007 L 5.896519775390624 0.20400000000000007 L 5.896519775390624 0 L 6.192019775390625 0 L 6.192019775390625 0.20400000000000007 L 6.345019775390624 0.20400000000000007 L 6.345019775390624 0.4485000000000001 L 6.192019775390625 0.4485000000000001 L 6.192019775390625 0.7305000000000001 Q 6.192019775390625 0.7650000000000001 6.2077697753906245 0.78 Q 6.223519775390624 0.7950000000000002 6.261019775390625 0.7950000000000002 L 6.346519775390624 0.7950000000000002" fill="#173054" fill-rule="nonzero"></path></g><g></g><g clip-path="url(#SvgjsClipPath1004)"><g clip-path="url(#SvgjsClipPath1001dd45ff2b-0d65-468a-984c-e7c4d05cd0e0)"><path d=" M 0.875396868800905 -0.9652678945233427 C 0.875396868800905 -0.8768311040237977 0.8037046850228877 -0.8051389202457805 0.7152678945233427 -0.8051389202457805 C 0.6268311040237977 -0.8051389202457805 0.5551389202457806 -0.8768311040237977 0.5551389202457806 -0.9652678945233427 C 0.5551389202457806 -1.0537046850228877 0.6268311040237977 -1.1253968688009048 0.7152678945233427 -1.1253968688009048 C 0.7577367390028443 -1.1253968688009048 0.7984661701788408 -1.1085261860200655 0.8284961780994532 -1.0784961780994533 C 0.8585261860200657 -1.0484661701788407 0.875396868800905 -1.0077367390028442 0.875396868800905 -0.9652678945233427 Z" fill="#bd2949" transform="matrix(1,0,0,1,0,0)" fill-rule="nonzero"></path></g><g clip-path="url(#SvgjsClipPath1001dd45ff2b-0d65-468a-984c-e7c4d05cd0e0)"><path d=" M 0.3202709534259338 -0.410128974277562 C 0.3202709534259338 -0.3453575899029291 0.28125361283994443 -0.2869640131380551 0.22141265652379966 -0.2621770774465322 C 0.16157170020765485 -0.23739014175500883 0.09269177998725714 -0.2510912097509703 0.046891494869113794 -0.2968914948691137 C 0.0010912097509704654 -0.34269177998725686 -0.012609858244990795 -0.41157170020765466 0.012177077446532318 -0.4714126565237995 C 0.03696401313805541 -0.5312536128399441 0.0953575899029293 -0.5702709534259336 0.16012897427756226 -0.5702709534259336 C 0.24857294716892867 -0.5702709534259336 0.3202709534259338 -0.49857294716892864 0.3202709534259338 -0.410128974277562 Z" fill="#bd2949" transform="matrix(1,0,0,1,0,0)" fill-rule="nonzero"></path></g><g clip-path="url(#SvgjsClipPath1001dd45ff2b-0d65-468a-984c-e7c4d05cd0e0)"><path d=" M 0.3202709534259338 -1.5204068147691232 C 0.32027621350138363 -1.4556342471904993 0.28126220807328384 -1.3972366792801174 0.22142166826086257 -1.3724456459537806 C 0.1615811284484413 -1.3476546126274433 0.0926990752697921 -1.3613524703900715 0.046896093593572524 -1.4071517324801688 C 0.0010931119173529214 -1.452950994570266 -0.012610339827458272 -1.5218319350957052 0.012175833666274734 -1.5816744880322913 C 0.036962007160007734 -1.6415170409688773 0.09535640648483627 -1.680535788832999 0.1601289742773017 -1.6805357890466854 C 0.24856786869988265 -1.680535789338304 0.3202637714465265 -1.6088457088998254 0.3202709534259338 -1.5204068147691232 Z" fill="#bd2949" transform="matrix(1,0,0,1,0,0)" fill-rule="nonzero"></path></g><g clip-path="url(#SvgjsClipPath1001dd45ff2b-0d65-468a-984c-e7c4d05cd0e0)"><path d=" M 1.4305357890466854 -1.5204068147691232 C 1.4305410490046424 -1.4556330637689299 1.391525636337119 -1.397234673195662 1.3316834998452984 -1.372444401990591 C 1.2718413633534777 -1.34765413078552 1.2029582897443365 -1.3613543722915211 1.1571563310180084 -1.4071563310177415 C 1.1113543722916803 -1.4529582897439617 1.097654130785517 -1.5218413633530705 1.1224444019904467 -1.5816834998449496 C 1.1472346731953766 -1.6415256363368287 1.2056330637685526 -1.6805410490044899 1.270406814768935 -1.6805357890466854 C 1.358840630516191 -1.6805286077712636 1.4305286077712638 -1.6088406305161909 1.4305357890466857 -1.5204068147691232 Z" fill="#bd2949" transform="matrix(1,0,0,1,0,0)" fill-rule="nonzero"></path></g><g clip-path="url(#SvgjsClipPath1001dd45ff2b-0d65-468a-984c-e7c4d05cd0e0)"><path d=" M 1.4305357890466854 -0.410128974277562 C 1.4305357890466854 -0.34535640701314874 1.3915170413752087 -0.2869620075595962 1.3316744885203928 -0.26217583386844123 C 1.2718319356655772 -0.23738966017728602 1.2029509950949298 -0.25109311169485715 1.1571517328537273 -0.29689609321998356 C 1.1113524706125248 -0.3426990747451104 1.097654612622653 -0.41158112787856993 1.1224456457515746 -0.4714216677727776 C 1.147236678880496 -0.5312622076669851 1.2056342466621695 -0.5702762132877399 1.2704068142410714 -0.5702709534259764 C 1.3128779125818795 -0.5702709535660007 1.353609314724735 -0.5533984856031187 1.3836396965094446 -0.5233656649016716 C 1.4136700782941545 -0.49333284420022494 1.430539238335877 -0.452600071950251 1.4305357890466857 -0.410128974277562 Z" fill="#bd2949" transform="matrix(1,0,0,1,0,0)" fill-rule="nonzero"></path></g><g clip-path="url(#SvgjsClipPath1001dd45ff2b-0d65-468a-984c-e7c4d05cd0e0)"><path d=" M 0.8327018779332661 -1.5204068147691232 C 0.8327071380435088 -1.4729080191123023 0.8040986018009566 -1.4300833362614258 0.7602169463027223 -1.411902689209145 C 0.7163352908044882 -1.3937220421568643 0.6658227080247902 -1.40376598501531 0.6322341275305183 -1.4373508458440396 C 0.5986455470362463 -1.470935706672769 0.5885960100667782 -1.5214471767950972 0.6067717971975511 -1.5653308454963595 C 0.624947584328324 -1.6092145141976217 0.6677690985755147 -1.6378277930170302 0.7152678945234681 -1.637827793308237 C 0.7801198142939998 -1.637827793705902 0.8326946961038343 -1.5852587341421152 0.8327018779332661 -1.5204068147691232 Z" fill="#bd2949" transform="matrix(1,0,0,1,0,0)" fill-rule="nonzero"></path></g><g clip-path="url(#SvgjsClipPath1001dd45ff2b-0d65-468a-984c-e7c4d05cd0e0)"><path d=" M 0.8327018779332661 -0.410128974277562 C 0.8327018779332661 -0.3452719761283791 0.7801248926725258 -0.2926949908676386 0.7152678945233427 -0.2926949908676386 C 0.6504108963741597 -0.2926949908676386 0.5978339111134193 -0.3452719761283789 0.5978339111134193 -0.410128974277562 C 0.5978339111134193 -0.4749859724267451 0.6504108963741597 -0.5275629576874856 0.7152678945233427 -0.5275629576874856 C 0.7464143808427827 -0.5275664074838644 0.7762861784712688 -0.515195041868894 0.7983100702929719 -0.49317115004719114 C 0.8203339621146747 -0.4711472582254883 0.832705327729645 -0.4412754605970022 0.8327018779332661 -0.410128974277562 Z" fill="#bd2949" transform="matrix(1,0,0,1,0,0)" fill-rule="nonzero"></path></g><g clip-path="url(#SvgjsClipPath1001dd45ff2b-0d65-468a-984c-e7c4d05cd0e0)"><path d=" M 0.5551389202457806 -1.2428308522108282 C 0.5551389202457806 -1.1779738540616451 0.5025619349850402 -1.1253968688009048 0.43770493683585715 -1.1253968688009048 C 0.37284793868667415 -1.1253968688009048 0.3202709534259338 -1.1779738540616451 0.3202709534259338 -1.2428308522108282 C 0.3202709534259338 -1.3076878503600113 0.3728479386866741 -1.3602648356207516 0.43770493683585715 -1.3602648356207516 C 0.46885036570371225 -1.3602648356207516 0.49872015889133886 -1.3478923621771572 0.5207433028467625 -1.3258692182217335 C 0.5427664468021861 -1.30384607426631 0.5551389202457806 -1.2739762810786834 0.5551389202457806 -1.2428308522108282 Z" fill="#bd2949" transform="matrix(1,0,0,1,0,0)" fill-rule="nonzero"></path></g><g clip-path="url(#SvgjsClipPath1001dd45ff2b-0d65-468a-984c-e7c4d05cd0e0)"><path d=" M 1.1102648356207518 -1.2428308522108282 C 1.1102648356207518 -1.1779738540616451 1.0576878503600116 -1.1253968688009048 0.9928308522108283 -1.1253968688009048 C 0.9279738540616453 -1.1253968688009048 0.875396868800905 -1.1779738540616451 0.875396868800905 -1.2428308522108282 C 0.875396868800905 -1.3076878503600113 0.9279738540616452 -1.3602648356207516 0.9928308522108283 -1.3602648356207516 C 1.0239762810786834 -1.3602648356207516 1.05384607426631 -1.3478923621771572 1.0758692182217338 -1.3258692182217335 C 1.0978923621771572 -1.30384607426631 1.1102648356207518 -1.2739762810786834 1.1102648356207518 -1.2428308522108282 Z" fill="#bd2949" transform="matrix(1,0,0,1,0,0)" fill-rule="nonzero"></path></g><g clip-path="url(#SvgjsClipPath1001dd45ff2b-0d65-468a-984c-e7c4d05cd0e0)"><path d=" M 0.5551389202457806 -0.6877049368358571 C 0.5551389202457806 -0.6228479386866741 0.5025619349850402 -0.5702709534259336 0.43770493683585715 -0.5702709534259336 C 0.37284793868667415 -0.5702709534259336 0.3202709534259338 -0.6228479386866739 0.3202709534259338 -0.6877049368358571 C 0.3202709534259338 -0.7525619349850401 0.3728479386866741 -0.8051389202457805 0.43770493683585715 -0.8051389202457805 C 0.46885036570371225 -0.8051389202457805 0.49872015889133886 -0.7927664468021861 0.5207433028467625 -0.7707433028467625 C 0.5427664468021861 -0.7487201588913388 0.5551389202457806 -0.7188503657037122 0.5551389202457806 -0.6877049368358571 Z" fill="#bd2949" transform="matrix(1,0,0,1,0,0)" fill-rule="nonzero"></path></g><g clip-path="url(#SvgjsClipPath1001dd45ff2b-0d65-468a-984c-e7c4d05cd0e0)"><path d=" M 1.1102648356207518 -0.6877049368358571 C 1.1102648356207518 -0.6228479386866741 1.0576878503600116 -0.5702709534259336 0.9928308522108283 -0.5702709534259336 C 0.9279738540616453 -0.5702709534259336 0.875396868800905 -0.6228479386866739 0.875396868800905 -0.6877049368358571 C 0.875396868800905 -0.7525619349850401 0.9279738540616452 -0.8051389202457805 0.9928308522108283 -0.8051389202457805 C 1.0239762810786834 -0.8051389202457805 1.05384607426631 -0.7927664468021861 1.0758692182217338 -0.7707433028467625 C 1.0978923621771572 -0.7487201588913388 1.1102648356207518 -0.7188503657037122 1.1102648356207518 -0.6877049368358571 Z" fill="#bd2949" transform="matrix(1,0,0,1,0,0)" fill-rule="nonzero"></path></g><g clip-path="url(#SvgjsClipPath1001dd45ff2b-0d65-468a-984c-e7c4d05cd0e0)"><path d=" M 1.3878407981790468 -0.9652678945233427 C 1.3878407981790468 -0.9004108963741596 1.3352638129183065 -0.8478339111134193 1.2704068147691234 -0.8478339111134193 C 1.2055498166199403 -0.8478339111134193 1.1529728313591998 -0.9004108963741596 1.1529728313591998 -0.9652678945233427 C 1.1529728313591998 -1.0301248926725257 1.20554981661994 -1.0827018779332662 1.2704068147691234 -1.0827018779332662 C 1.3015522436369782 -1.0827018779332662 1.3314220368246052 -1.0703294044896716 1.3534451807800287 -1.048306260534248 C 1.3754683247354522 -1.0262831165788244 1.3878407981790468 -0.9964133233911977 1.3878407981790468 -0.9652678945233427 Z" fill="#bd2949" transform="matrix(1,0,0,1,0,0)" fill-rule="nonzero"></path></g><g clip-path="url(#SvgjsClipPath1001dd45ff2b-0d65-468a-984c-e7c4d05cd0e0)"><path d=" M 0.27756295768748557 -0.9652678945233427 C 0.27756295768748546 -0.9004108963741596 0.22498597242674523 -0.8478339111134193 0.16012897427756217 -0.8478339111134193 C 0.09527197612837911 -0.8478339111134193 0.042694990867638824 -0.9004108963741596 0.042694990867638796 -0.9652678945233427 C 0.042694990867638796 -1.0301248926725257 0.09527197612837907 -1.0827018779332662 0.16012897427756212 -1.0827018779332662 C 0.1912744031454173 -1.0827018779332662 0.22114419633304389 -1.0703294044896716 0.2431673402884675 -1.048306260534248 C 0.26519048424389113 -1.0262831165788244 0.27756295768748546 -0.9964133233911977 0.27756295768748546 -0.9652678945233427 Z" fill="#bd2949" transform="matrix(1,0,0,1,0,0)" fill-rule="nonzero"></path></g><g clip-path="url(#SvgjsClipPath1001dd45ff2b-0d65-468a-984c-e7c4d05cd0e0)"><path d=" M 0.7899938821948178 -1.2428308522108282 C 0.7899867000976082 -1.2015625224718658 0.7565275562043674 -1.1681130820565624 0.7152592261182421 -1.1681178699130725 C 0.6739908960321169 -1.1681226577695827 0.6405395144934137 -1.2015798609897805 0.6405419081092081 -1.2428481912842275 C 0.6405443017250024 -1.2841165215786743 0.6739995641595438 -1.3175698441281833 0.715267894523407 -1.3175698447531128 C 0.735088712116401 -1.317569845053278 0.7540975305844883 -1.3096951659302796 0.7681117455844262 -1.2956785119788972 C 0.7821259605843641 -1.2816618580275148 0.7899973316931808 -1.2626516695037213 0.789993882194818 -1.2428308522108282 Z" fill="#bd2949" transform="matrix(1,0,0,1,0,0)" fill-rule="nonzero"></path></g><g clip-path="url(#SvgjsClipPath1001dd45ff2b-0d65-468a-984c-e7c4d05cd0e0)"><path d=" M 1.0675568398823032 -1.5204068147691232 C 1.0675568398823032 -1.4901829740498898 1.0493504374942009 -1.4629351673184487 1.0214272496598196 -1.4513690042127567 C 0.9935040618254387 -1.4398028411070647 0.9613630823235382 -1.4461960794296889 0.939991599597466 -1.467567562155761 C 0.9186201168713938 -1.488939044881833 0.9122268785487697 -1.5210800243837337 0.9237930416544616 -1.5490032122181148 C 0.9353592047601539 -1.5769264000524956 0.9626070114915951 -1.5951328024405984 0.9928308522108283 -1.5951328024405982 C 1.034100875617828 -1.5951328024405982 1.0675568398823032 -1.5616768381761228 1.0675568398823032 -1.5204068147691232 Z" fill="#bd2949" transform="matrix(1,0,0,1,0,0)" fill-rule="nonzero"></path></g><g clip-path="url(#SvgjsClipPath1001dd45ff2b-0d65-468a-984c-e7c4d05cd0e0)"><path d=" M 0.5123919098949037 -1.5204068147691232 C 0.5123971698283912 -1.4901753477903956 0.4941895269695066 -1.4629179854110341 0.46626029951768927 -1.4513464739583823 C 0.4383310720658721 -1.4397749625057303 0.4061813456676468 -1.4461684869544027 0.38480447003818724 -1.4675453625838488 C 0.3634275944087276 -1.4889222382132952 0.3570340699600354 -1.5210719646115165 0.36860558141266997 -1.549001192063341 C 0.3801770928653045 -1.5769304195151654 0.4074344552446547 -1.595138062374067 0.43766592222340545 -1.5951328024405984 C 0.47893297121116224 -1.5951256224406114 0.5123847298949169 -1.5616738637568568 0.5123919098949037 -1.5204068147691232 Z" fill="#bd2949" transform="matrix(1,0,0,1,0,0)" fill-rule="nonzero"></path></g><g clip-path="url(#SvgjsClipPath1001dd45ff2b-0d65-468a-984c-e7c4d05cd0e0)"><path d=" M 1.0675568398823032 -0.9652678945233427 C 1.0675568398823032 -0.9239978711163431 1.0341008756178278 -0.8905419068518677 0.9928308522108283 -0.8905419068518677 C 0.9515608288038289 -0.8905419068518677 0.9181048645393534 -0.9239978711163431 0.9181048645393534 -0.9652678945233428 C 0.9181048645393534 -1.0065379179303422 0.9515608288038289 -1.0399938821948178 0.9928308522108283 -1.0399938821948178 C 1.0126504738600821 -1.0399973323858003 1.0316593259136162 -1.0321255463883021 1.045673914994702 -1.0181109573072162 C 1.059688504075788 -1.0040963682261304 1.0675602900732861 -0.9850875161725963 1.0675568398823037 -0.9652678945233427 Z" fill="#bd2949" transform="matrix(1,0,0,1,0,0)" fill-rule="nonzero"></path></g><g clip-path="url(#SvgjsClipPath1001dd45ff2b-0d65-468a-984c-e7c4d05cd0e0)"><path d=" M 0.5123919098949037 -0.9652678945233427 C 0.5123971698284104 -0.9350364275446629 0.4941895269695432 -0.9077790651652898 0.4662602995177334 -0.8962075537126201 C 0.43833107206592353 -0.8846360422599503 0.40618134566769415 -0.8910295667086021 0.38480447003822094 -0.9124064423380347 C 0.3634275944087477 -0.9337833179674674 0.35703406996003495 -0.9659330443656846 0.3686055814126517 -0.9938622718175164 C 0.3801770928652685 -1.0217914992693484 0.40743445524460703 -1.0399991421282673 0.43766592222335776 -1.0399938821948178 C 0.45748448637345035 -1.0399938821948178 0.47649133373293023 -1.0321209882405662 0.4905051748367911 -1.0181071471367051 C 0.5045190159406521 -1.004093306032844 0.5123919098949038 -0.9850864586733644 0.5123919098949038 -0.9652678945233428 Z" fill="#bd2949" transform="matrix(1,0,0,1,0,0)" fill-rule="nonzero"></path></g><g clip-path="url(#SvgjsClipPath1001dd45ff2b-0d65-468a-984c-e7c4d05cd0e0)"><path d=" M 1.0675568398823032 -0.410128974277562 C 1.0675496577850936 -0.36886064453859957 1.034090513891853 -0.33541120412329595 0.9928221838057276 -0.3354159919798063 C 0.9515538537196023 -0.33542077983631646 0.9181024721808991 -0.3688779830565143 0.9181048657966934 -0.4101463133509613 C 0.9181072594124879 -0.45141464364540806 0.9515625218470293 -0.4848679661949169 0.9928308522108925 -0.48486796681984656 C 1.0126516698038868 -0.4848679671200118 1.0316604882719738 -0.4769932879970131 1.0456747032719118 -0.46297663404563094 C 1.0596889182718496 -0.44895998009424853 1.0675602893806662 -0.4299497915704549 1.0675568398823032 -0.410128974277562 Z" fill="#bd2949" transform="matrix(1,0,0,1,0,0)" fill-rule="nonzero"></path></g><g clip-path="url(#SvgjsClipPath1001dd45ff2b-0d65-468a-984c-e7c4d05cd0e0)"><path d=" M 0.5123919098949037 -0.410128974277562 C 0.5123919094444375 -0.37989869023182954 0.49418093107888417 -0.35264531907994834 0.46625128702203683 -0.3410779054789437 C 0.4383216429651896 -0.32951049187793924 0.4061740496678465 -0.3359072267764225 0.3847998708033044 -0.35728512546701996 C 0.36342569193876245 -0.37866302415761766 0.35703455141283225 -0.410811730118366 0.3686068251132256 -0.43873936080845644 C 0.38017909881361905 -0.4666669914985466 0.40743563859983944 -0.48487322699782087 0.4376659222056778 -0.48486796681984967 C 0.4789380492128063 -0.48486078531164845 0.5123919105197087 -0.45140110189174454 0.5123919098949038 -0.410128974277562 Z" fill="#bd2949" transform="matrix(1,0,0,1,0,0)" fill-rule="nonzero"></path></g><g clip-path="url(#SvgjsClipPath1001dd45ff2b-0d65-468a-984c-e7c4d05cd0e0)"><path d=" M 0.7899938821948178 -0.6877049368358571 C 0.7900096639857357 -0.657477550735817 0.7718132709560191 -0.63021777248058 0.7438913359187092 -0.6186393156198013 C 0.7159694008813992 -0.6070608587590227 0.6838220242818424 -0.6134444633506999 0.6624424512460059 -0.6348128740616072 C 0.6410628782101695 -0.6561812847725144 0.6346624858871871 -0.6883253232233455 0.6462263592560352 -0.7162533011704494 C 0.6577902326248833 -0.7441812791175533 0.685040504303486 -0.7623919057750564 0.7152678945233619 -0.7623919098949039 C 0.7565226865763683 -0.7623919155177435 0.789972342971679 -0.7289597232660434 0.789993882194818 -0.6877049368358572 Z" fill="#bd2949" transform="matrix(1,0,0,1,0,0)" fill-rule="nonzero"></path></g><g clip-path="url(#SvgjsClipPath1001dd45ff2b-0d65-468a-984c-e7c4d05cd0e0)"><path d=" M 0.23486796681984673 -1.2428308522108282 C 0.23486796681984673 -1.2015536464120071 0.20140618007638333 -1.1680918596685437 0.16012897427756217 -1.1680918596685437 C 0.118851768478741 -1.1680918596685437 0.08538998173527762 -1.2015536464120071 0.08538998173527759 -1.2428308522108282 C 0.08538998173527759 -1.2841080580096493 0.11885176847874097 -1.3175698447531128 0.16012897427756212 -1.3175698447531128 C 0.20140618007638333 -1.3175698447531128 0.23486796681984673 -1.2841080580096493 0.23486796681984673 -1.2428308522108282 Z" fill="#bd2949" transform="matrix(1,0,0,1,0,0)" fill-rule="nonzero"></path></g><g clip-path="url(#SvgjsClipPath1001dd45ff2b-0d65-468a-984c-e7c4d05cd0e0)"><path d=" M 1.3451328024405984 -1.2428308522108282 C 1.3451328016603679 -1.2126005673498126 1.326921822997524 -1.185347196396584 1.2989921788144945 -1.1737797831002472 C 1.2710625346314652 -1.1622123698039106 1.2389149414039 -1.168609105053073 1.2175407627725567 -1.1899870039768288 C 1.1961665841412137 -1.2113649029005846 1.1897754439659747 -1.2435136089310503 1.201347717971014 -1.2714412394949055 C 1.2129199919760534 -1.2993688700587607 1.2401765319608749 -1.3175751052607094 1.2704068155666557 -1.317569844752974 C 1.311678941758501 -1.3175626632449147 1.3451328030654035 -1.2841029798250108 1.3451328024405984 -1.2428308522108282 Z" fill="#bd2949" transform="matrix(1,0,0,1,0,0)" fill-rule="nonzero"></path></g><g clip-path="url(#SvgjsClipPath1001dd45ff2b-0d65-468a-984c-e7c4d05cd0e0)"><path d=" M 0.23486796681984673 -0.6877049368358571 C 0.23488901003054174 -0.6574711111889349 0.2166927869619304 -0.6302026013841446 0.18876641166499641 -0.6186180332506435 C 0.16084003636806246 -0.6070334651171423 0.12868493471075756 -0.6134149695122664 0.10729894520371676 -0.6347860740431435 C 0.08591295569667597 -0.6561571785740206 0.07950906461666443 -0.6883078292668443 0.09107418599310464 -0.7162422636375835 C 0.10263930736954484 -0.7441766980083228 0.12989514130745067 -0.7623919025717063 0.16012897427756678 -0.7623919098949037 C 0.20138587373548614 -0.7623919198880958 0.23483925138608575 -0.7289618263005901 0.23486796681984673 -0.6877049368358571 Z" fill="#bd2949" transform="matrix(1,0,0,1,0,0)" fill-rule="nonzero"></path></g><g clip-path="url(#SvgjsClipPath1001dd45ff2b-0d65-468a-984c-e7c4d05cd0e0)"><path d=" M 1.3451328024405984 -0.6877049368358571 C 1.3451538460185137 -0.6574699277923175 1.32695621583303 -0.6302005947364719 1.299028243392495 -0.6186167883648257 C 1.27110027095196 -0.6070329819931795 1.2389441480516423 -0.6134168702830805 1.2175591811077597 -0.6347906720858509 C 1.1961742141638774 -0.6561644738886214 1.1897735335750381 -0.6883172584908597 1.2013427533010455 -0.7162512766340919 C 1.2129119730270526 -0.7441852947773242 1.2401717988588612 -0.7623971635803258 1.2704068147691239 -0.7623919098949039 C 1.311658636149599 -0.7623847419114886 1.3451040911635828 -0.7289567488475642 1.3451328024405986 -0.6877049368358572 Z" fill="#bd2949" transform="matrix(1,0,0,1,0,0)" fill-rule="nonzero"></path></g></g></g><defs><clipPath id="SvgjsClipPath1004"><path d=" M 0 -1.6805357890466854 h 1.4305357890466854 v 1.4305357890466854 h -1.4305357890466854 Z"></path></clipPath><clipPath id="SvgjsClipPath1001dd45ff2b-0d65-468a-984c-e7c4d05cd0e0"><path d=" M 0 -1.6805357890466854 L 1.4305357890466854 -1.6805357890466854 L 1.4305357890466854 -0.25 L 0 -0.25 Z"></path></clipPath></defs></svg>